<svg width="109" height="33" fill="none" xmlns="http://www.w3.org/2000/svg"><mask id="a" maskUnits="userSpaceOnUse" x="1" y="5" width="20" height="23"><path fill-rule="evenodd" clip-rule="evenodd" d="M1.298 5.635H20.33v21.907H1.298V5.635z" fill="#fff"/></mask><g mask="url(#a)"><path fill-rule="evenodd" clip-rule="evenodd" d="M5.4 25.774l7.989-4.77 3.978 4.77H5.4zm2.31-14.119a.824.824 0 01-.828.82.824.824 0 01-.828-.82c0-.45.371-.817.828-.817.456 0 .828.367.828.818zM3.08 7.399h9.972c3.07 0 4.763 2.135 5.277 3.964.515 1.829.183 4.522-2.446 6.092l-2.1 1.254-4.713-5.65c.265-.404.421-.885.421-1.402 0-1.424-1.17-2.581-2.61-2.581-1.438 0-2.609 1.157-2.609 2.58 0 1.424 1.17 2.582 2.61 2.582.267 0 .523-.04.766-.114l4.593 5.505-9.16 5.472V7.398zm11.85 12.684l1.875-1.12c2.868-1.712 4.14-4.881 3.242-8.073-.9-3.191-3.645-5.254-6.995-5.254H2.189a.886.886 0 00-.891.882V26.66l.001.02a1.002 1.002 0 00.014.135l.007.032a.878.878 0 00.43.58.904.904 0 00.533.109h16.975c.345 0 .66-.198.807-.506a.874.874 0 00-.12-.937l-5.015-6.012z" fill="#F3F8FB"/></g><path fill-rule="evenodd" clip-rule="evenodd" d="M36.333 27.177H22.708V6.47h2.149v18.757h11.476v1.949z" fill="#F3F8FB"/><mask id="b" maskUnits="userSpaceOnUse" x="37" y="6" width="23" height="22"><path fill-rule="evenodd" clip-rule="evenodd" d="M37.668 6.09h21.773v21.27H37.668V6.09z" fill="#fff"/></mask><g mask="url(#b)"><path fill-rule="evenodd" clip-rule="evenodd" d="M57.227 16.725c0-4.746-3.813-8.652-8.703-8.652a8.639 8.639 0 00-8.673 8.652 8.639 8.639 0 008.673 8.652c4.89 0 8.703-3.905 8.703-8.652zm2.214 0c0 5.89-4.859 10.636-10.887 10.636-6.026 0-10.886-4.747-10.886-10.636 0-5.889 4.86-10.635 10.886-10.635 6.028 0 10.887 4.746 10.887 10.635z" fill="#F3F8FB"/></g><mask id="c" maskUnits="userSpaceOnUse" x="62" y="6" width="22" height="22"><path fill-rule="evenodd" clip-rule="evenodd" d="M62.093 6.09h20.911v21.27h-20.91V6.09z" fill="#fff"/></mask><g mask="url(#c)"><path fill-rule="evenodd" clip-rule="evenodd" d="M82.975 16.725V26.94H81.19l-.184-4.356c-1.477 2.884-4.214 4.778-8.12 4.778-6.151 0-10.794-4.747-10.794-10.516 0-6.128 4.89-10.755 10.948-10.755 4.583 0 8.765 2.643 9.903 7.15h-2.338c-1.045-3.364-4.275-5.107-7.534-5.107-4.921 0-8.764 3.695-8.764 8.712 0 4.627 3.597 8.443 8.58 8.443 4.458 0 7.257-3.064 7.81-7.09h-7.995v-1.954h10.301l-.06.481h.03z" fill="#F3F8FB"/></g><mask id="d" maskUnits="userSpaceOnUse" x="85" y="6" width="23" height="22"><path fill-rule="evenodd" clip-rule="evenodd" d="M85.817 6.09h21.772v21.27H85.817V6.09z" fill="#fff"/></mask><g mask="url(#d)"><path fill-rule="evenodd" clip-rule="evenodd" d="M105.376 16.725c0-4.746-3.813-8.652-8.703-8.652A8.639 8.639 0 0088 16.725a8.639 8.639 0 008.673 8.652c4.89 0 8.703-3.905 8.703-8.652zm2.214 0c0 5.89-4.859 10.636-10.887 10.636-6.026 0-10.886-4.747-10.886-10.636 0-5.889 4.86-10.635 10.886-10.635 6.028 0 10.887 4.746 10.887 10.635z" fill="#F3F8FB"/></g></svg>