<svg width="109" height="33" viewBox="0 0 109 33" fill="none" xmlns="http://www.w3.org/2000/svg">
<mask id="mask0" mask-type="alpha" maskUnits="userSpaceOnUse" x="1" y="5" width="20" height="23">
<path fill-rule="evenodd" clip-rule="evenodd" d="M1.29785 5.63477H20.331V27.5423H1.29785V5.63477Z" fill="white"/>
</mask>
<g mask="url(#mask0)">
<path fill-rule="evenodd" clip-rule="evenodd" d="M5.39909 25.7737L13.3886 21.0031L17.3673 25.7737H5.39909ZM7.70962 11.6555C7.70962 12.1073 7.33751 12.4742 6.88182 12.4742C6.42498 12.4742 6.05401 12.1073 6.05401 11.6555C6.05401 11.2048 6.42498 10.8379 6.88182 10.8379C7.33751 10.8379 7.70962 11.2048 7.70962 11.6555ZM3.08054 7.39784H13.052C16.1228 7.39784 17.815 9.53346 18.3291 11.3622C18.8443 13.191 18.5123 15.8837 15.8835 17.4543L13.7836 18.7078L9.06981 13.0585C9.33544 12.6542 9.49116 12.173 9.49116 11.6555C9.49116 10.2321 8.32101 9.07486 6.8818 9.07486C5.44259 9.07486 4.27244 10.2321 4.27244 11.6555C4.27244 13.0789 5.44259 14.2373 6.8818 14.2373C7.14857 14.2373 7.40505 14.1965 7.64778 14.1229L12.2413 19.6284L3.08054 25.0999V7.39784ZM14.9297 20.0825L16.8052 18.9626C19.6733 17.2504 20.9453 14.081 20.0465 10.8889C19.1477 7.69791 16.4021 5.63477 13.052 5.63477H2.18863C1.6963 5.63477 1.29785 6.02996 1.29785 6.51687V26.6614C1.29785 26.6682 1.299 26.6739 1.299 26.6807C1.299 26.7067 1.30129 26.7316 1.30358 26.7577C1.30587 26.7769 1.3093 26.7962 1.31274 26.8154C1.31503 26.8267 1.31732 26.8369 1.31961 26.8483C1.37227 27.0906 1.52684 27.3035 1.75011 27.428C1.8875 27.5039 2.03749 27.5424 2.18863 27.5424C2.22069 27.5424 2.2516 27.5401 2.28252 27.5367H19.2577C19.6034 27.5367 19.9183 27.3386 20.0649 27.0306C20.2126 26.7214 20.1645 26.3568 19.9458 26.0941L14.9297 20.0825Z" fill="#F3F8FB"/>
</g>
<path fill-rule="evenodd" clip-rule="evenodd" d="M36.333 27.1766H22.708V6.4707H24.8566V25.2282H36.333V27.1766Z" fill="#F3F8FB"/>
<mask id="mask1" mask-type="alpha" maskUnits="userSpaceOnUse" x="37" y="6" width="23" height="22">
<path fill-rule="evenodd" clip-rule="evenodd" d="M37.668 6.08984H59.4407V27.3606H37.668V6.08984Z" fill="white"/>
</mask>
<g mask="url(#mask1)">
<path fill-rule="evenodd" clip-rule="evenodd" d="M57.2267 16.7253C57.2267 11.9788 53.4139 8.07317 48.5237 8.07317C43.6653 8.07317 39.8514 11.9788 39.8514 16.7253C39.8514 21.4717 43.6653 25.3774 48.5237 25.3774C53.4139 25.3774 57.2267 21.4717 57.2267 16.7253ZM59.4407 16.7253C59.4407 22.6142 54.5823 27.3607 48.5543 27.3607C42.5276 27.3607 37.668 22.6142 37.668 16.7253C37.668 10.8363 42.5276 6.08984 48.5543 6.08984C54.5823 6.08984 59.4407 10.8363 59.4407 16.7253Z" fill="#F3F8FB"/>
</g>
<mask id="mask2" mask-type="alpha" maskUnits="userSpaceOnUse" x="62" y="6" width="22" height="22">
<path fill-rule="evenodd" clip-rule="evenodd" d="M62.0933 6.08984H83.0042V27.3606H62.0933V6.08984Z" fill="white"/>
</mask>
<g mask="url(#mask2)">
<path fill-rule="evenodd" clip-rule="evenodd" d="M82.9747 16.7253V26.9392H81.191L81.007 22.5832C79.5299 25.4672 76.7935 27.3607 72.8877 27.3607C66.736 27.3607 62.0933 22.6142 62.0933 16.8451C62.0933 10.7165 66.9824 6.08984 73.0409 6.08984C77.6235 6.08984 81.8064 8.73317 82.944 13.24H80.6062C79.5605 9.87569 76.3314 8.13307 73.0716 8.13307C68.1507 8.13307 64.3085 11.828 64.3085 16.8451C64.3085 21.4717 67.9055 25.2875 72.8877 25.2875C77.3464 25.2875 80.1452 22.2238 80.6982 18.1972H72.7026V16.2439H83.0042L82.944 16.7253H82.9747Z" fill="#F3F8FB"/>
</g>
<mask id="mask3" mask-type="alpha" maskUnits="userSpaceOnUse" x="85" y="6" width="23" height="22">
<path fill-rule="evenodd" clip-rule="evenodd" d="M85.8169 6.08984H107.589V27.3606H85.8169V6.08984Z" fill="white"/>
</mask>
<g mask="url(#mask3)">
<path fill-rule="evenodd" clip-rule="evenodd" d="M105.376 16.7253C105.376 11.9788 101.563 8.07317 96.6726 8.07317C91.8142 8.07317 88.0003 11.9788 88.0003 16.7253C88.0003 21.4717 91.8142 25.3774 96.6726 25.3774C101.563 25.3774 105.376 21.4717 105.376 16.7253ZM107.59 16.7253C107.59 22.6142 102.731 27.3607 96.7033 27.3607C90.6765 27.3607 85.8169 22.6142 85.8169 16.7253C85.8169 10.8363 90.6765 6.08984 96.7033 6.08984C102.731 6.08984 107.59 10.8363 107.59 16.7253Z" fill="#F3F8FB"/>
</g>
</svg>
